<svg xmlns="http://www.w3.org/2000/svg" xmlns:xlink="http://www.w3.org/1999/xlink" width="140" height="140" viewBox="0 0 140 140">
    <defs>
        <circle id="prefix__a" cx="70" cy="70" r="70"/>
    </defs>
    <g fill="none" fill-rule="evenodd">
        <use fill="#C8CCD0" xlink:href="#prefix__a"/>
        <path fill="#FFF" d="M70.357 29.5l16.154.087v4.6l.123.08c2.455 1.776 4.356 3.912 5.769 6.22 1.849 2.964 2.969 6.46 3.174 9.946l.035 1.161v9.867c2.797 1.272 3.032 5.169 2.405 7.863-.778 3.367-2.263 6.93-4.968 7.367-1 3.233-2.151 6.632-3.263 8.332-1.262 2.107-3.436 4.825-4.368 7.075-.946 1.871-1.327 3.275-1.389 5.359 0 .068-.03.159-.034.224.019 4.33 1.366 9.582 4.31 11.514 2.194 1.427 17.082 8.209 25.195 11.871C101.837 131.001 86.718 137 70.197 137c-16.472 0-31.552-5.964-43.197-15.851 8.07-3.64 23.178-10.516 25.387-11.954 3.001-1.966 4.31-7.34 4.31-11.738-.074-2.084-.447-3.488-1.393-5.359-.924-2.25-3.11-4.968-4.372-7.075-1.104-1.7-2.262-5.1-3.263-8.332-2.701-.437-4.194-4-4.972-7.367-.578-2.514-.415-6.077 1.887-7.575l.526-.288v-9.867c0-3.863 1.166-7.814 3.21-11.108 1.404-2.307 3.324-4.443 5.768-6.22 3.936-2.869 9.273-4.766 16.27-4.766z"/>
    </g>
</svg>
