<svg xmlns="http://www.w3.org/2000/svg" width="44" height="44" viewBox="0 0 44 44">
    <g fill="none" fill-rule="evenodd">
        <path fill="#E2E2E2" d="M0 0h44v44H0z"/>
        <g fill="#FFF">
            <path d="M30.514 25.18h-1.29c.059-.382.09-.773.09-1.17v-3.141h1.2c1.22 0 2.213.966 2.213 2.155 0 1.189-.992 2.156-2.213 2.156m0-5.913H13v4.743c0 4.387 3.652 7.944 8.157 7.944 3.504 0 6.491-2.152 7.646-5.173h1.711c2.13 0 3.857-1.682 3.857-3.757s-1.726-3.757-3.857-3.757M27.29 12h-5.057c-2.85 0-5.177 2.183-5.313 4.927h5.057c2.85 0 5.177-2.183 5.313-4.927"/>
        </g>
    </g>
</svg>
