<svg width="36" height="36" viewBox="0 0 36 36" fill="none" xmlns="http://www.w3.org/2000/svg">
<g clip-path="url(#clip0_1083_8508)">
<circle cx="18" cy="18" r="18" fill="#ECEDEE"/>
<path d="M7.71296 28.4783C7.71259 28.4783 7.71242 28.4778 7.71271 28.4776C9.39127 27.1135 11.3123 26.1016 13.1023 24.8986C14.604 23.8909 15.0368 22.5587 14.04 21.0031C13.3187 19.8772 12.6039 18.7556 12.3241 17.4514C11.8519 15.249 11.5175 13.0144 12.158 10.7992C12.7241 8.8396 14.2695 7.81254 16.1975 7.4881C17.9047 7.20018 19.66 7.1615 21.4043 7.22811C21.5632 7.23438 21.8056 7.23407 21.9998 7.23235C22.133 7.23117 22.2155 7.37863 22.1447 7.4914C22.0611 7.62448 21.9647 7.77976 21.9027 7.8856C21.8471 7.98061 21.7952 8.11028 21.758 8.21325C21.7202 8.31786 21.7438 8.43359 21.8167 8.5176C21.8807 8.59138 21.9595 8.6794 22.0207 8.73861C23.9224 10.5886 23.7957 12.8898 23.5399 15.2404C23.3038 17.4041 22.6328 19.368 21.3977 21.2072C20.4665 22.5931 20.9103 23.9811 22.3114 24.8836C24.1542 26.0718 26.0712 27.1482 27.8155 28.4826C29.4671 29.7459 30.9034 30.7139 30.5444 31.2608C29.8264 32.3544 26.0096 34.2518 25.159 34.5418C21.2101 36.3646 15.4666 36.7291 10.0817 34.1772C9.95619 34.0972 6.54816 32.7414 5.79186 31.6521C5.77931 31.6341 5.76342 31.6185 5.74551 31.6057C4.72281 30.8768 6.14632 29.7911 7.7132 28.479C7.71349 28.4787 7.71332 28.4783 7.71296 28.4783Z" fill="#DADCDD"/>
</g>
<defs>
<clipPath id="clip0_1083_8508">
<rect width="36" height="36" rx="18" fill="white"/>
</clipPath>
</defs>
</svg>
